<?xml version="1.0" encoding="utf-8"?>
<!-- Generator: Adobe Illustrator 19.1.0, SVG Export Plug-In . SVG Version: 6.00 Build 0)  -->
<svg version="1.0" id="Layer_1" xmlns="http://www.w3.org/2000/svg" xmlns:xlink="http://www.w3.org/1999/xlink" x="0px" y="0px"
	 viewBox="0 0 97.3 96.6" enable-background="new 0 0 97.3 96.6" xml:space="preserve">
<g>
	<circle cx="53.9" cy="50.4" r="43.3"/>
	<path d="M13.1,42.3c-2.8,1.3-10.3,7.3-11.8,9.1s-2-1-0.4-5.6C2.2,42,5.3,37,10.4,32.7c3-2.5,9.8-6.1,13.8-8.2
		c0.8-0.4,11.6-5,21.2-7.3c0.9-0.2-1,1.4-1.3,2.3C42.7,23.7,14,41.8,14,41.8L13.1,42.3z"/>
	<path d="M53.6,93c0.5,3,0.1,3.2-3,3.6c-3.1,0.4-5.4-0.8-6.2-1.5c-0.8-0.8-1-2.5-0.2-4c0.5-1,1-1.4,1.3-2.5c0.3-1.2,0.5-1.5,0.7-1.9
		s0.3-0.8,0.3-3.5c0.1-2.7,0-7.8,0.3-9.9c0.3-2.2,9.8,1,9.8,1s-2.3,5.6-2.9,7s-0.6,4.1-0.6,4.6s-0.2,1.7-0.4,1.7
		c-0.2,0.1,0.6,1.5,0.2,2.3S53.5,92.6,53.6,93z"/>
	<path d="M57.2,8.4c-0.3-2.1,0-6.3,0.5-6.9c1.4-1.9,8.7-2.1,10.2,0.1c0.7,1,0.6,3.3,0.5,4.8s-0.5,4.7-0.6,5.7
		c-0.1,0.8-8.1,2-9.8-0.1C57.5,11.5,57.2,8.4,57.2,8.4z"/>
	<path d="M73.5,87.7c3.4,2.4,6,2.9,7.7,3.8s1.2,2.6-1.6,3.1c-2.3,0.4-6-0.5-8.4-0.4s-7.9,0.3-9.3-0.7c-1.7-1.2-0.9-3.3-0.9-3.3
		c0.4-1.2,1.6-3.9,1.2-6.2c-0.4-2.2-0.8-3.5-1.6-5.5s-1.4-7.1-0.6-7.4c0.8-0.3,0.6,0,1.5,0.2c1,0.3,2.1,0.6,4.3,0.6
		c2.2,0,4.6-0.4,5.4-0.5s1.5-0.3,1.2,1.4c-0.3,1.7-1.1,4.9-1.2,7.4s-0.1,5.4,0.1,5.9S72.6,87,73.5,87.7z"/>
	<g>
		<g>
			<path fill-rule="evenodd" clip-rule="evenodd" fill="#88CE02" d="M61.7,13.9c-6.1,5.2-17.9,6.7-35.4,13.5
				C21.8,29.1,9.9,34.3,7,39.6c9.7-5.6,13.3,2.1,14.1,10C21.7,57,25.5,60.9,35,60.7c9.8-0.2,12.8,5.5,15.5,12.2
				c5.2-25.6,13.7-30.6,19.1-35C81.1,28.5,66.9,12,61.7,13.9z"/>
			<path fill-rule="evenodd" clip-rule="evenodd" fill="#88CE02" d="M61.7,13.9C47.1,19,32.6,20.3,15.6,30.7
				C11.5,33.2,3,38.9,1.4,49.7c6.2-6.9,20.5-15.5,38.1-21c8.8-2.8,15.3-4.6,23.2-7.6C62.1,17.5,62.1,16.1,61.7,13.9z"/>
		</g>
		<path fill-rule="evenodd" clip-rule="evenodd" d="M80.3,44.2c0,0-1.1,3.6-3.1,4.7c0,0-1.6,0.6-4.7-1.2C71.6,47.3,71,45.6,71,45
			c0.1-1.3,0.9-1.9,0.9-1.9s0.9-1.5,1.9-1.4c1.1,0.1,2.8,0.2,3.4-0.3C77.7,40.9,80.4,42.4,80.3,44.2z"/>
		<path fill-rule="evenodd" clip-rule="evenodd" d="M57.7,9.4c0,0-0.2,2.8-0.6,4.6c-0.1,0.3-1.7,0.5-2.9,1
			c2.3,6.6,16.3,6.6,18.2,3.3c-0.9-0.6-2.7-1.5-3.5-1.9C68,16.1,68,16.2,68,14.7c0-1.6-0.2-4.4-0.3-5.2C67.6,8.7,59.1,8.7,57.7,9.4z
			"/>
		<path fill-rule="evenodd" clip-rule="evenodd" fill="#EFEFEF" d="M58.3,9.4c0,0,0,1.6-0.1,3.2c-0.1,0.7-0.1,1.1-0.2,1.7
			c-0.1,0.3,1.9,1.6,2.4,4.6c2.7,5.9,8.8,3,11.3,0.2c-0.9-0.6-2.3-1.4-4-2.1c-0.8-0.4-0.5-1.1-0.5-2.6c0-1.6-0.3-3.8-0.4-4.6
			C66.7,8.9,59.6,8.7,58.3,9.4z"/>
		<path fill-rule="evenodd" clip-rule="evenodd" d="M57.7,9.4c0,0-0.1,1-0.2,2.2c0.7,0.7,1.7,1.7,2.4,2.3c0.5,0.4,1.7,0.4,2.8,0.4
			c1,0,1.9,0.1,2.3-0.1c0.9-0.5,2.2-1.6,2.9-2.4c0-1-0.1-2-0.2-2.4C67.6,8.7,59.1,8.7,57.7,9.4z"/>
		<path fill-rule="evenodd" clip-rule="evenodd" d="M62.8,13.6c-0.6,0-1.4,0-2.1-0.2c-0.3-0.1-0.5-0.2-0.8-0.4
			c-0.4-0.2-0.8-0.6-1.2-0.9c-0.9-0.7-0.9-1-0.9-1.2c0.4-3.5-0.1-6.4-0.1-6.4S57.3,3,59.4,2.6c2.1-0.4,3.4-0.4,3.4-0.4
			s1.3,0,3.4,0.4c2.1,0.4,1.7,1.9,1.7,1.9s-0.5,2.9-0.1,6.4c0,0.2-0.1,0.6-0.9,1.2c-0.8,0.6-1.4,1.2-2,1.3
			C64.2,13.6,63.4,13.6,62.8,13.6z"/>
		<path fill-rule="evenodd" clip-rule="evenodd" d="M62.8,0.8c-3.7,0-4.4,1-5.4,2.1c-0.2,0.3,0,1.9,0.3,5.5h0.5c0,0-0.3-1-0.3-2.2
			c0-1.2,0.3-1.1,0.1-1.4c-0.2-0.3-0.6-0.9,0.3-1.4c1-0.6,2.6,0.4,4.4,0.5c1.9-0.1,3.5-1.1,4.5-0.5c1,0.6,0.5,1.1,0.3,1.4
			c-0.2,0.3,0,0.2,0.1,1.4c0,1.2-0.3,2.2-0.3,2.2h0.5c0.3-3.5,0.5-5.1,0.4-5.4C67.3,1.8,66.4,0.8,62.8,0.8z"/>
		<path fill-rule="evenodd" clip-rule="evenodd" d="M80.3,44.4c0,0-1,3.4-3.1,4.5c-0.5-0.2-0.4-0.6-0.8-1.1
			c-0.1-0.2-0.5-0.3-0.7-0.4c-0.1-0.2-0.1-0.5-0.4-0.7c-0.2-0.2-0.4-0.1-0.6-0.2c-0.2-0.2-0.3-0.5-0.4-0.7c-0.1-0.1-0.5-0.2-0.7-0.3
			c-0.3-0.3-2.7-0.8-2.6-1.3c0.2-0.9,0.7-1.4,0.7-1.4s1-1.5,2.1-1.5c1.1,0.1,2,0.3,2.6-0.2C77,40.6,80.5,42.6,80.3,44.4z"/>
		<path fill-rule="evenodd" clip-rule="evenodd" d="M73.1,20c0,0,3.5-0.8,5.9,1.5c2.4,2.3,2.2,5.2,1.5,7c0.6,0.7,1.7,2.7,0.9,5.1
			c3.7,3.1,2,7.9-1.2,11c0,0-0.8-2.9-3.9-3.1c0.1-1.1-2.9-2-1.5-4.9c-2.1-0.5-2.1-1.9-2.4-3.7C72.1,31.1,73.1,20,73.1,20z"/>
		<path fill-rule="evenodd" clip-rule="evenodd" fill="#EFEFEF" d="M71.9,21.5c0,0,4.1-2,6.4,0.3c2.4,2.3,1.7,4.9,1,6.7
			c0.6,0.7,2,2.8,1.2,5.2c-0.2,0.5-1.4,0.5-2.2,2c2.2-1.3,3.6-1,4.1,0.7c0.8,2.5-0.9,5.5-2.4,7.2c0-0.1-0.1-0.1-0.1-0.2
			c-0.2,0.8-0.5,2.5-2.2,4.2c-0.8,0.9-1.5,0.8-2.4,0.6c-1.1-0.3-1.5-0.8-3.1-1.6c-0.9-0.5-0.4-1.1-0.4-1.6c0-0.1,0.1-0.3,0.3-0.5
			c0.1-0.3,0.4-0.7,0.9-1.2c0,0,0.7-1,1.8-1c1,0,2.1-0.2,2.4-0.5v0c0-1.9-2.2-2-1.5-5.3c0-0.2,0.3-0.5,1.2-0.5
			c-1.3-0.3-1.9-0.4-2.9-1.2c-0.6-0.6-1.2-1.4-1.3-2.4C72.4,30.5,71.9,21.5,71.9,21.5z"/>
		<path fill-rule="evenodd" clip-rule="evenodd" d="M60.2,18c-0.3-0.5-2-2.7-5.3-3.5c-0.9-0.3-1.5,0.5-2.5,1
			c-0.3-0.2-1.5-0.7-2.2-0.3c-0.7,0.4-1.1,0.8-1.8,1.1c-0.3-0.1-0.8-0.4-1.6-0.1c-0.7,0.2-2.2,0.9-3.3,2.4
			c-0.7,2.4,11.7,0.6,11.7,0.6L60.2,18z"/>
		<path fill-rule="evenodd" clip-rule="evenodd" fill="#88CE02" d="M60.3,18c-1.8-0.6-1.5-2.7-5.4-3c-0.8-0.1-1.3,0.6-1.8,1
			c0.3,0.3,0.6,0.7,0.7,1.2c-0.5-0.6-1.4-1.3-2.3-1.5c-0.8-0.2-1.4,0.4-2.3,0.9c0.2,0.2,0.4,0.4,0.5,0.8c-0.8-0.5-1.3-0.6-2.4-0.3
			c-0.7,0.2-2.1,0.8-3.1,2.3c-0.7,2.4,11.2-0.3,11.2-0.3L60.3,18z"/>
		<path fill-rule="evenodd" clip-rule="evenodd" d="M70.7,18.9c0,0,0-0.6,0-1.2c0-0.1-0.4-0.4-0.4-0.5l-0.1-0.1c0,0,0.9-0.5,1.6-0.2
			c0.7,0.2,1.1,1.2,1.1,1.2c1.3-0.4,1.4,0.1,2,0.7c1.3-0.3,1.5,0.2,2.3,1.5c0,0-1-0.1-2.9,0.1C72.2,20.6,70.7,18.8,70.7,18.9z"/>
		<path fill-rule="evenodd" clip-rule="evenodd" fill="#88CE02" d="M70.5,18.6c0,0,0.3-0.3,0.2-0.4c0.6-0.3,1.4-0.7,1.8,0.3
			c1.3-0.4,1.5,0.2,2,0.9c1.5-0.7,1.6,0.1,1.8,0.6c-0.5,0-1.2,0-2.2,0.2C72.2,20.4,70.4,18.5,70.5,18.6z"/>
		<path fill-rule="evenodd" clip-rule="evenodd" d="M51.6,17.2c0,0,3.2,1.1,5.8,0.9c2.7-0.2,7.2-0.4,9.7,1c0,0,2.5-0.9,4.8-0.3
			c2.3,0.6,6.6,4.6,5.3,8.8c-0.1,0.3-0.8,0.7-1.6,1c0,0,0.4,1.9-0.3,3.4c-0.8,1.5-2.5,4.4-2.5,8.3l0,0c-0.1,0.6-0.2,2-0.3,2.7
			c-4.3-0.2-11-1.7-17.5-1.6c0.1-0.7,0.1-1.2,0.2-1.9l0.2,0c-0.3-1.8-0.5-2.8-0.8-4.1c-2.1-1.3-4.3-2.9-6.2-5.8
			C46.4,26.7,51.6,17.2,51.6,17.2z"/>
		<path fill-rule="evenodd" clip-rule="evenodd" d="M73,47.1c0,0,3.4,12.3-0.6,17.4c0,0,0.6,2.4-0.8,4.9c-0.2,1.1-0.5,2.1-0.7,3.2
			c-0.7,4.6-1.9,6.5-2.3,13.9l-3.3-0.1c0,0-0.4-5.3-1.5-8.1c-0.7-1.6-3.3-3.8-3.1-5.9c0.1-1.7,0.5-3.1,3.2-5.3
			c0.2-3.2-3-6.2-2.5-18.2L73,47.1z"/>
		<path fill-rule="evenodd" clip-rule="evenodd" fill="#EFEFEF" d="M72,46.6c0.9,5.7,2.9,14-0.8,18.1c0.2,0.8,0.3,1.9,0,3.1
			c-0.1,0.7-0.3,1.4-0.6,2.1c-0.5,1.3-0.7,3.3-0.9,4.4c-0.7,4.6-0.7,4.8-1,12.2l-3.3-0.1c0,0-0.4-5.3-1.5-8.1c-0.7-1.6-2-3-2.2-5.2
			c-0.1-1.7,1-5,3.8-4.9c-0.2-6.7-3.3-5.3-4.1-19.3L72,46.6z"/>
		<path fill-rule="evenodd" clip-rule="evenodd" fill="#EFEFEF" d="M51.6,17.2c0,0,1.2,0.4,2.6,0.5c1.3,0.1,2.8,0,4.1-0.1
			c2.7-0.2,6.4-0.5,8.9,0.9c0,0,1.4-0.4,2.9-0.3c0.7,0,1.3,0.6,2.1,0.8c2.4,0.6,4.8,4.7,3.7,8.3c-0.1,0.3-0.9,0-1.8,0.3
			c0.1,0.8,0.3,2.6-0.6,4.4c-0.9,1.9-2.1,4.3-1.9,9c-5.8-0.3-8.4-0.7-14.2-0.9c-0.5-2-0.8-4.1-0.9-5.1c0.8-0.4,1.2-0.7,1.9-1.4
			c-1.7,0.3-2.3,0.2-3.3-0.4c-1-0.6-2.8-2.3-3.6-3.5c-0.1-0.1-0.7,1.7-2.1,1.8c-0.5-0.7,1.6-2.8,1.2-3.5
			C49,25.2,51.6,17.2,51.6,17.2z"/>
		<path fill-rule="evenodd" clip-rule="evenodd" d="M72.5,42c0,0,0.1,2,0.1,2.5c0,0.5,0.4,2.2,0.5,3c-0.6,1-3.3,3.4-8.1,4.3
			c-4.7,1-11.1-6.5-11.1-6.5c0.2-0.7,0.7-2.8,1.1-3.9c0.1-0.1,0.1-0.4,0.2-0.5C55.7,40.2,72.5,42,72.5,42z"/>
		<path fill-rule="evenodd" clip-rule="evenodd" fill="#EFEFEF" d="M71.2,42.2c0,1.4,0.2,2.4,0.4,3.3c0.3,1.6,0.7,2.7,0.7,3.7
			c0,3.2-4.2,2.7-7.7,2.8c-4.7,1-8.8-6.5-8.8-6.5c0.3-1.3,0.5-2.7,1.1-3.9l0,0c0.1-0.7,0.2-1.5,0.2-1.9c6.7,0,11.5,0.4,14.3,0.7
			C71.4,40.9,71.3,42,71.2,42.2L71.2,42.2z"/>
		<path fill-rule="evenodd" clip-rule="evenodd" d="M65.9,49.3c0,0-3-6.5-11.7-4.6c-2.1,5.9-4.9,12.7-3.1,20.1
			c-1.8,2.5-3.9,3.9-3.9,8.5c0,4.6,0.2,5.4,0.2,5.4l6.5,0.4c0,0,2.1-2.7,3-5.6c0.2-0.9,0.4-2.3,0.3-4.1c0.2-0.3,1.1-1.1,1.3-2.6
			c0,0,3.1-1.7,5-5.7C65.1,57.4,64.6,54.2,65.9,49.3z"/>
		<path fill-rule="evenodd" clip-rule="evenodd" fill="#EFEFEF" d="M65.9,49.3c-0.1-0.6-2.4-6.6-10.6-4.8c-4.8,12.8-3,18.1-2.3,20.5
			c-3.3,4.1-4.7,5-4.1,13.4l4.3,0c2-3.1,2.4-4.3,2.5-8.4c0-0.2-0.6,0.3-1,0.9c0.3-1.7,1.3-2.1,2-3.1c0.3-0.5,0.6-1.1,0.6-2
			c3.8-2.6,5.3-5.9,6.1-9.3C64.1,54.2,64.9,50.4,65.9,49.3z"/>
		<path fill-rule="evenodd" clip-rule="evenodd" d="M52.2,40.4c0,0,1.5,0,2.8,0.5c1.3,0.5,1.3,0.7,1.8,1.3c0.5,0.6,1.7,1.4,1.5,2.2
			c-0.1,0.4-0.4,0.5-0.8,1c-0.2,0.2-1.4,1.5-1.7,1.7c-0.2,0.1-0.4,0.3-0.6,0.4c-0.2,0.1-0.7,0.5-0.8,0.6c-0.6,0.3-0.9,0.4-1.5,0.4
			c0,0-1.4,0-2.2-1c0,0-0.1-0.5,0.1-0.7c0,0-1.2-1-1.5-1.7c-0.3-0.7-0.3-1.6-0.1-2.1C49.3,42.4,51.5,41,52.2,40.4z"/>
		<path fill-rule="evenodd" clip-rule="evenodd" d="M53.6,94.3l-0.2,1.4c0,0-0.5,0.6-4.2,0.6c-3.7-0.1-4.8-1.2-5.1-1.9l-0.2-1.4
			c0,0,0.7-1,0.9-1c1.2,0.1,5.4,1.7,8.3,2.2C53.4,94.1,53.4,94.2,53.6,94.3z"/>
		<path fill-rule="evenodd" clip-rule="evenodd" d="M61.7,91.5c0,0.6-0.1,0.6-0.1,1.2c0.7,0.5,2.3,0.8,5.5,0.7
			c4.6-0.1,8.9,1.4,14,0.5l0-1l-0.5-0.1l-18.4-1.5L61.7,91.5z"/>
		<path fill-rule="evenodd" clip-rule="evenodd" d="M65.7,93.4c0.4,0,0.9,0,1.4,0c3-0.1,5.8,0.5,8.9,0.7c1.6-0.1,3.6-0.4,3.4-1.6
			l-15.7-1.3C62.7,92.2,63.4,93.1,65.7,93.4z"/>
		<path fill-rule="evenodd" clip-rule="evenodd" d="M47.7,70.1c0.5,0.3,3.9,2.3,9.3,2c-0.1,1,0,3.1-2.5,6.7
			c-1.2,1.8-2.3,4.9-2.5,8.8c0,0.9,0.6,1.6-0.1,2.8c0.2,0.7,1.1,2.2,1.5,3c0.4,0.9,0.7,1.9-2.3,1.9c-3,0.1-7.8-0.3-7.2-2.6
			c0.3-1.2,1.3-2.5,1.4-3c0.1-0.5,0.1-2,1.1-3c0.8-2.8,0.6-5.4,0.4-7.9C46.6,76.4,46.5,72.2,47.7,70.1z"/>
		<path fill-rule="evenodd" clip-rule="evenodd" d="M52.8,25c3.9-5.2,0.6-9.5-5.7-8.2c-2.5,0.5-5.1,2.2-5.3,5.5
			c-0.8,0.1-2.7,0.2-3.7,3.6c-0.7,2.7-1.1,3.2-2.4,4.5c-0.8,1,0.1,2.9,0.6,4.2c2,4.8,8.4,5.2,12.6,8.8c1.4-0.4,2.9-2,3.4-3
			c-3.6-4.3-2.8-5.9-4.2-8.1C49.8,31.7,53.3,29.6,52.8,25z"/>
		<path fill-rule="evenodd" clip-rule="evenodd" fill="#EFEFEF" d="M52,24.6c0.2-0.3,0.6-1,0.8-1.3c0-0.1,0.7,1,0.7,0.9
			c1.5-2.4,1.9-6,0.2-6.3c-0.4-0.1-1.1-0.2-1.7-0.4c-1.1-0.4-2.1-0.4-3.9-0.1c-2.5,0.5-4.9,2.2-4.9,4.8c0,0.2,1.7,0.7,2.2,2.7
			c-0.8-1.1-2.3-2.5-4-1.3c-1.8,1.2-0.9,3.8-3.3,6.6c-0.8,0.9-0.7,2.1,0.2,4.3c1.4,3.5,8.3,5.4,12,8.7c0.9-0.4,1.5-1.3,1.9-1.9
			c-2.5-2.6-3.5-5-4.2-6.8c-0.9-2.1-1.9-3.2-3.8-4.8c1,0.4,1.8,0.7,2.2,1.1c0.5,0.4,1.2,0.4,1.9,0.2C50.6,30.1,51.9,26.7,52,24.6z"
			/>
		<path fill-rule="evenodd" clip-rule="evenodd" d="M76.1,25.5c-0.1,2.1-1.7,1-2.6,0.7c-1.6-0.7-3.3-1.2-5.3-1.2
			c-1.9,0-4.4,0.1-6.6,0.7c-3,0.8-3.9,0.8-5.2,0.1c-1.3-0.7-3.7-2.5-3.7-2.5s-0.1,0.6,0.5,1.3c0.7,0.9,2.3,2,4.5,2.7
			c1,0.3,1.9,0.1,2.8-0.1c4.9-1.2,10.1-1.5,14.5,1.2c0.2,0.1,1-0.2,1.3-0.7C76.9,27,76.1,25.5,76.1,25.5z"/>
		<path fill-rule="evenodd" clip-rule="evenodd" fill="#001423" d="M50.9,46.6c0.4,0.3,1,0.4,1.6,0.9c0,0-0.5,0-0.7-0.2
			C51.6,47.2,51,46.7,50.9,46.6C50.9,46.6,50.9,46.6,50.9,46.6z"/>
		<path fill-rule="evenodd" clip-rule="evenodd" fill="#EFEFEF" d="M66.9,2.7c-0.1-0.5-1.4-1.4-4.2-1.4c-3,0-3.9,0.9-4,1.4
			c0,0.2-0.2,1.9-0.3,2.7c0,0,0,0.9,0.1,2.2c0,0.9,0.3,1.4,0.4,2.5c0.1,1.2,0.5,2,1.1,3c0.3,0.2,0.5,0.3,0.8,0.4
			c1.1,0.2,3.1,0.3,4.1,0c0.6-0.1,1.4-1.2,1.6-2.1c0.2-1.2,0.4-2,0.5-2.7C67,7.9,67,6.2,67.1,5.8C67.2,4.7,67,2.9,66.9,2.7z"/>
		<path d="M61.1,71.2c0,0,2.9,1.3,10.2,0.2c0,0-2.1,10.3-1.1,15.4c0,0,0.9,1.3,7.9,3.9c0,0,3.1,0.8,3,2.3c0,0,0.1,0.3-3.6,0.2
			c-3.7-0.1-7.3-0.8-9.8-0.8c-2.5,0-5.1,0.1-5.6-0.6c-0.5-0.7,0.1-2.4,0.8-3.4c0.8-1,0.6-1.8,0.5-3.7C63.2,79.8,59.4,74.7,61.1,71.2
			z"/>
		<path fill-rule="evenodd" clip-rule="evenodd" fill="#88CE02" d="M60.5,72.1c-0.4,0.5,0,2.6,0.6,4.7c0.6,2.1,1.8,3.3,2.1,6.6
			c0.3,3.3,0.3,3.8-0.6,5.7s-1.2,3.7,2.1,3.8c3.3,0,5,0,8.3,0.4s4.5,0.7,6.3,0.4c1.8-0.3,2.2-0.9,1.4-1.4c-0.8-0.5-4-1.2-5.4-2.2
			c-1.3-1-5.1-2.7-5.1-3.1c-0.2-1.5-0.2-6.9,0-8.7c0.3-1.8,0.7-4.3,0.8-5c0.1-0.7,0.7-1.4-0.3-1.1s-4.5,0.7-7.1,0.5
			C61,72.5,60.6,71.9,60.5,72.1z"/>
		<path opacity="0.3" fill-rule="evenodd" clip-rule="evenodd" d="M62.4,89.2c0.9,0.4,2.3,0.8,3.4,0.8c0,0-0.4,1.8,0.2,2.9
			c0.6,1.1-4.4,0.4-4.4,0.4l-0.2-3.9L62.4,89.2z"/>
		<path opacity="0.3" fill-rule="evenodd" clip-rule="evenodd" d="M77.1,93.9c0.9-0.3,1.5-1.3,0.8-2.2c-0.8-0.9-1.4-1.1-0.4-1.2
			c1,0,4.7,2.2,4.7,2.2l-1.9,1.7L77.1,93.9z"/>
		<path opacity="0.3" fill-rule="evenodd" clip-rule="evenodd" d="M60.3,74.2c1.3,0.4,3.2,0.6,4.9,0.5c1.7-0.1,4.2-0.3,5.8-0.8
			c1.6-0.5,1,0.6,1,0.6L71,75.4c0,0-2.1,0.8-5.5,0.8c-4-0.1-5.2-0.5-5.2-0.5L60.3,74.2z"/>
		<path opacity="0.3" fill-rule="evenodd" clip-rule="evenodd" d="M60.4,77c1.3,0.4,3.2,0.6,4.9,0.5c1.7-0.1,3.9-0.1,5.5-0.6
			c0.6-0.2,0.3,0.7,0.3,0.7l-0.3,0.5c0,0-2.2,0.8-5.6,0.7c-4-0.1-4.7-0.4-4.7-0.4L60.4,77z"/>
		<path opacity="0" fill-rule="evenodd" clip-rule="evenodd" d="M61.1,71.2c0,0,4.8,1.7,10.2,0.6c0,0-2.1,9.9-1.1,15
			c0,0,0.9,1.3,7.9,3.9c0,0,3.1,0.8,3,2.3c0,0,0.1,0.3-3.6,0.2c-3.7-0.1-7.3-0.8-9.8-0.8c-2.5,0-5.1,0.1-5.6-0.6
			c-0.5-0.7,0.1-2.4,0.8-3.4c0.8-1,0.6-1.8,0.5-3.7C63.2,79.8,59.4,74.7,61.1,71.2z"/>
		<path opacity="0" fill-rule="evenodd" clip-rule="evenodd" d="M61.1,71.2c0,0,4.8,1.7,10.2,0.5c0,0-2.1,10-1.1,15.1
			c0,0,0.9,1.3,7.9,3.9c0,0,3.1,0.8,3,2.3c0,0,0.1,0.3-3.6,0.2c-3.7-0.1-7.4-1.2-9.8-0.8c-2.6,0.4-5.2,0.3-5.6-0.6
			c-0.4-0.7,0.1-2.4,0.8-3.4c0.8-1,0.6-1.8,0.5-3.7C63.2,79.8,59.4,74.7,61.1,71.2z"/>
		<path d="M56.8,38.2c0,0.4,4.3,2.6,6.7,3c2.4,0.5,7.4,0,8.2-0.2l-0.1,0.8c0,0-5.9,0.9-10.4-0.3S57,40,57,40L56.8,38.2z"/>
		<g>
			<path fill-rule="evenodd" clip-rule="evenodd" fill="#EFEFEF" d="M47.5,85.4c0.6,0.3,3,0.9,4.6,0.6c0.2,0,0-3.8,0.6-5.5
				c0.9-2.4,2.3-4.3,3-8.5c-2.3-0.2-5-0.8-6.4-1.3C47.6,76.1,48.2,80.8,47.5,85.4z"/>
			<path fill-rule="evenodd" clip-rule="evenodd" fill="#EFEFEF" d="M51.3,88.9c0.4,0.1,0.6,0.6,0.7,0.3c0.2-0.5-0.4-1.4-0.5-2.1
				c0-0.1,0,0,0-0.1c-0.5-0.4-3.9-0.5-3.6-0.2c-0.4,0.7-1,0.6-1.2,2c-0.1,0.7,0.8,0.1,1.6,0.1c-1.5,1-3.2,2.3-3.5,3.4
				c-0.4,1.5,0.2,2,1.9,2.8c1.4,0.3,3.1,0.4,4.5,0.3c1.5-0.3,1.8-1,1.3-2C51.8,91.9,51.4,90,51.3,88.9z"/>
		</g>
		<path fill-rule="evenodd" clip-rule="evenodd" d="M51.9,17c1.8,1,4.4,0.8,5.3,0.7c0.2,0,2.4-0.4,2.5-0.4c0.2,0,0.2,0.2,0.2,0.2
			s-0.8,0.4-2.7,0.6c-1.8,0.1-3.9,0-5.1-0.5C50.8,17,51.9,17,51.9,17z"/>
		<path fill-rule="evenodd" clip-rule="evenodd" d="M70.7,18.1c0.3,0.2,2.5,1,3.5,2c0.8,0.9,0.4,0.9,0.2,0.6c-0.2-0.3-2-1.4-2.6-1.7
			c-0.6-0.3-1.5-0.8-1.5-0.9C70.2,18,70.7,18.1,70.7,18.1z"/>
		<path fill-rule="evenodd" clip-rule="evenodd" fill="#EFEFEF" d="M51.6,41.1c1.6-0.1,3.3,0.3,4.3,1.4c0.6,0.6,1.4,1.1,1.3,1.7
			c0,0.2-0.4,0.6-0.6,0.9c-0.2,0.2-0.6,0.7-0.9,0.9c-0.2,0.2-1,0.8-1.2,0.9c-0.2,0.1-0.4,0.4-0.6,0.5c-0.6,0.3-1.2,0.1-1.7-0.2
			c-0.5-0.3,0.1-0.3-0.5-0.8c-1.5-1-2.3-1.8-1.7-3.8C50.2,42.1,50.8,41.7,51.6,41.1z"/>
	</g>
	<path opacity="0.4" fill-rule="evenodd" clip-rule="evenodd" d="M37.5,28.4c-5,2-17.7,8.3-21.3,10.3c0,0,0,0,0,0
		c3,1.9,4.4,6.4,4.8,11c0,0.4,0.1,0.8,0.2,1.2c0.1,0.4,0.1,0.7,0.2,0.9c0,0.1,0,0.1,0,0.2c3.3-8.9,14.9-18.3,15.4-19.1
		c0.2-0.3-0.3-1.8,0.5-3.1C38.3,28,40.3,27.2,37.5,28.4z"/>
	<path opacity="0.4" fill-rule="evenodd" clip-rule="evenodd" d="M49.3,70.1c2.6-5.1,2.6-10,2.5-15.7c0-2.4,1.7-5.8,0.8-4.8
		C49.3,53.4,41,60.3,35,60.7C43.4,60.5,46.8,64.7,49.3,70.1z"/>
	<path d="M11.3,43.3c3.1-2.2,19.5-10.9,23.4-12.2s2.7-2.8,2.7-2.8s-16,6.9-25.5,12.8"/>
	<path opacity="0.4" fill-rule="evenodd" clip-rule="evenodd" d="M57.8,27.3c-1.3-0.5-2.2,1-1.9,2.4c0.3,1.4,3.3,3,3.2,8.3
		c-0.1,4.3-1.1,6.1-1.1,6.1l-2.1-2.7c0,0-0.3-6-1-6.9c-0.7-0.9-3-2.5-3.9-3.3c-0.9-0.9,1-2,0.9-3.5c-0.1-1.5,1-4.5,1-4.5L57.8,27.3z
		"/>
	<path opacity="0.4" fill-rule="evenodd" clip-rule="evenodd" d="M65.6,50.9c-0.1,4.2,0.8,10.3,1.2,13.2c0.4,2.9,0.9,3.2,0,4.5
		c-0.9,1.3-2,3.4-2,3.4l-3.8-0.3c0,0,3.1-3.9,3.2-4.6c0.2-0.7-1.6-6.2-1.6-6.2L65.6,50.9z"/>
	<path opacity="0.4" fill-rule="evenodd" clip-rule="evenodd" d="M58.2,12.1c0.8,1.7,1.7,2.5,3.2,3c0.9,0.3,4.4,0.8,5.8-0.8
		c0.6-0.7,0.2-2.6,0.2-2.6l-3.2,2.5l-4.3-0.8l-0.5-1.3L58.2,12.1z"/>
	
		<path fill-rule="evenodd" clip-rule="evenodd" fill="#88CE02" stroke="#000000" stroke-width="0.8779" stroke-linejoin="round" stroke-miterlimit="10" d="
		M58.5,16c1.4,0.9,5,1.8,6,2c1,0.2,2.6-1.1,3.4-1.4c0.9-0.4,2.3-0.6,3.9,0.9c0.2,0.2-0.4,0.9-0.4,0.9c-0.1,0-0.4-0.1-0.8-0.3
		c-0.4-0.2-0.8-0.4-1.5-0.3c-2.8,0.3-3.2,1.3-5.6,0.7c-2.4-0.5-3-1-5.4-0.9"/>
	<path fill-rule="evenodd" clip-rule="evenodd" fill="#88CE02" d="M58,16.1c1.8,0.8,5.4,1.6,6.4,1.8c1,0.2,2.6-0.8,3.4-1.2
		c1.4-0.9,3.2-0.1,4,0.8c0.5,0.6,0.8,1,0.8,1.2c0,0.2-0.6,0-0.6,0c-0.4-0.2-0.8-0.2-1.2-0.4c-0.4-0.2-0.9-0.5-1.5-0.5
		c-2.8,0.3-3.3,1.3-5.7,0.7c-2.4-0.5-3-1.1-5.6-0.9"/>
	<path fill-rule="evenodd" clip-rule="evenodd" d="M49.4,67.8c-0.1-0.1,0.1-0.2,0-0.2c-0.7,0-1.7-0.6-2.3-1.3
		c-2.4-3.4-5.9-5.7-12.2-5.6C25.5,60.9,21.7,57,21,49.6c-0.4-4-1.5-8-3.8-10.2l-1.4,0.8c2.5,2.2,3.4,5.8,3.9,10.7
		c0.9,7.4,6.8,10.8,13.8,11c7.3,0.1,9.8,1.6,12.6,5.3c0.9,1.2,1.9,1.5,2.6,1.7L49.4,67.8z"/>
	<path opacity="0.4" fill-rule="evenodd" clip-rule="evenodd" d="M75.1,32.2c0.1,0.8,0.6,2.4,1.5,3.2c0.4,0.4,0.5,0.5,0.1,0.5
		c-0.3,0-2.7-0.1-2.7-0.1l-0.7-1.1L75.1,32.2z"/>
</g>
</svg>
